<svg width="16" height="16" viewBox="0 0 16 16" fill="none" xmlns="http://www.w3.org/2000/svg">
<path d="M1.71925 0C0.811801 0 0.0761719 0.73563 0.0761719 1.64307V3.92142L15.9236 3.92141V1.64307C15.9236 0.735629 15.188 0 14.2806 0H13.1034V1.08446C13.1034 2.02757 12.3389 2.79212 11.3958 2.79212C10.4527 2.79212 9.68812 2.02757 9.68813 1.08446L9.68813 0L10.8177 2.3612e-06L10.8177 1.08446C10.8177 1.40371 11.0765 1.6625 11.3958 1.6625C11.715 1.6625 11.9738 1.40371 11.9738 1.08446V0H9.68813H6.30558V1.08446C6.30558 2.02757 5.54104 2.79212 4.59793 2.79212C3.65482 2.79212 2.89027 2.02757 2.89027 1.08446L2.89028 0L4.01989 2.3612e-06L4.01989 1.08446C4.01989 1.40371 4.27869 1.6625 4.59793 1.6625C4.91717 1.6625 5.17597 1.40371 5.17597 1.08446L5.17597 0H2.89028H1.71925Z" fill="#6368F2"/>
<path fill-rule="evenodd" clip-rule="evenodd" d="M15.9236 5.05103L0.0761719 5.05103V14.1627C0.0761719 15.0702 0.8118 15.8058 1.71924 15.8058H14.2806C15.188 15.8058 15.9236 15.0702 15.9236 14.1627V5.05103ZM10.8444 7.97127C10.8444 7.5459 11.1892 7.20108 11.6146 7.20108H12.3334C12.7588 7.20108 13.1036 7.5459 13.1036 7.97127V8.69011C13.1036 9.11548 12.7588 9.4603 12.3334 9.46031H11.6146C11.1892 9.46031 10.8444 9.11548 10.8444 8.69011V7.97127ZM7.63995 7.20108C7.21459 7.20108 6.86976 7.5459 6.86976 7.97127V8.69011C6.86976 9.11548 7.21459 9.4603 7.63995 9.4603H8.3588C8.78416 9.4603 9.12899 9.11548 9.12899 8.69011V7.97127C9.12899 7.5459 8.78416 7.20108 8.3588 7.20108H7.63995ZM2.89027 8.69011V7.97127C2.89027 7.5459 3.2351 7.20108 3.66046 7.20108H4.37931C4.80467 7.20108 5.1495 7.5459 5.1495 7.97127V8.69011C5.1495 9.11548 4.80467 9.4603 4.37931 9.46031H3.66046C3.2351 9.46031 2.89027 9.11548 2.89027 8.69011ZM7.66535 11.0005C7.23998 11.0005 6.89515 11.3453 6.89515 11.7707V12.4896C6.89515 12.9149 7.23998 13.2597 7.66535 13.2597H8.38419C8.80955 13.2597 9.15438 12.9149 9.15438 12.4896V11.7707C9.15438 11.3453 8.80955 11.0005 8.38419 11.0005L7.66535 11.0005ZM2.89027 11.7707C2.89027 11.3453 3.2351 11.0005 3.66046 11.0005L4.37931 11.0005C4.80467 11.0005 5.1495 11.3453 5.1495 11.7707V12.4896C5.1495 12.9149 4.80467 13.2597 4.37931 13.2597H3.66046C3.2351 13.2597 2.89027 12.9149 2.89027 12.4896V11.7707Z" fill="#6368F2"/>
</svg>
