<svg width="44" height="40" viewBox="0 0 44 40" fill="none" xmlns="http://www.w3.org/2000/svg">
<path d="M43.9823 22.3921C44.2278 18.3531 41.9151 13.9594 37.5285 12.9825C37.9807 10.1452 37.3604 7.6459 36.0148 5.6163C34.4287 3.22407 32.0348 1.48134 29.3813 0.65368C26.7321 -0.172641 23.8017 -0.249777 21.2904 0.61909C19.3113 1.3038 17.4656 2.70538 16.4221 4.63425C13.3686 3.19073 9.64327 3.56308 6.97228 5.42719C5.34169 6.56518 4.08423 8.26995 3.60954 10.4582C3.19932 12.3492 3.39315 14.5052 4.30078 16.8579C1.48277 19.2474 0.114642 21.7779 0.00688849 24.2318C-0.112234 26.9445 1.32771 29.1745 3.23393 30.5563C5.11935 31.9229 7.6328 32.5906 9.94362 32.0349C12.3707 31.4514 14.3175 29.5786 14.9885 26.4226C15.3312 24.766 15.6865 23.112 16.0258 21.4548L16.0234 21.4543C16.3076 20.0752 16.5919 18.696 16.8761 17.3169C17.0989 16.2363 18.2027 15.6302 19.2585 15.8304C20.3327 16.034 21.0313 17.0342 20.819 18.0644L19.3711 25.089H22.5903L24.1923 17.3169C24.415 16.2363 25.5188 15.6302 26.5746 15.8304C27.6488 16.034 28.3475 17.0342 28.1351 18.0644L26.6872 25.089H29.816L31.1463 18.6352C31.7002 15.9474 29.7722 13.4359 27.1169 12.9326C25.3687 12.6012 23.653 13.1779 22.5005 14.3218C21.7646 13.593 20.8193 13.1257 19.8008 12.9326C18.0753 12.6055 16.3815 13.1631 15.2295 14.2775C14.5444 13.6162 13.6534 13.137 12.628 12.9426C12.4103 12.9013 12.1913 12.8695 11.9701 12.8534L11.3634 15.7968C11.5884 15.7714 11.8112 15.7883 12.0328 15.8304C13.1042 16.0335 13.802 17.029 13.5949 18.0564C13.0622 20.6408 12.524 23.2322 12.0058 25.8093C11.5522 27.9322 10.4042 28.8211 9.22452 29.1048C7.92715 29.4167 6.3203 29.056 5.03377 28.1235C3.76803 27.206 2.98434 25.8659 3.05035 24.3627C3.11654 22.8554 4.05584 20.7955 7.07378 18.5155L8.04561 17.7814L7.53175 16.6833C6.4431 14.3571 6.2833 12.4957 6.58799 11.0912C6.89092 9.69475 7.67846 8.62387 8.72771 7.89159C10.8946 6.37931 13.9682 6.44554 16.2148 8.04199L18.0191 9.22716L18.6133 7.1534C19.1061 5.28594 20.5482 4.07014 22.2956 3.4656C24.0871 2.84577 26.3346 2.86492 28.4657 3.52964C30.5925 4.19302 32.3421 5.57266 33.4679 7.27074C34.5654 8.92614 34.9153 11.0923 34.267 13.8595L33.8158 15.8304L35.6668 15.7983C38.9537 15.7983 41.1501 18.7769 40.9414 22.211C40.841 23.8632 40.1585 25.4828 38.8126 26.693C37.4739 27.8968 35.3995 28.8047 32.2311 28.8047H29.9788L30.7633 30.848C31.4019 32.5114 31.3076 33.9994 30.6069 35.0183C30.0578 35.8168 28.9432 36.6045 26.8324 36.8809C26.8832 35.2249 26.5403 33.6881 25.6934 32.3688C24.526 30.5504 22.5668 29.4023 20.0639 28.8419L18.5783 28.5092L17.9062 31.4503L19.3918 31.7829C21.3679 32.2254 22.5102 33.0326 23.1222 33.986C23.7401 34.9485 23.9838 36.3185 23.6243 38.2142L23.2857 40L25.1213 40C28.9371 40 31.6658 38.8373 33.1252 36.715C34.1643 35.2041 34.4048 33.4294 34.1353 31.7165C36.9732 31.4042 39.2184 30.402 40.861 28.925C42.8559 27.1311 43.8393 24.7453 43.9823 22.3921Z" fill="currentColor"/>
</svg>
